<?xml version="1.0" encoding="UTF-8"?>
<!DOCTYPE svg PUBLIC "-//W3C//DTD SVG 1.1//EN" "http://www.w3.org/Graphics/SVG/1.1/DTD/svg11.dtd">
<svg xmlns="http://www.w3.org/2000/svg" version="1.1" width="586px" height="166px" style="shape-rendering:geometricPrecision; text-rendering:geometricPrecision; image-rendering:optimizeQuality; fill-rule:evenodd; clip-rule:evenodd" xmlns:xlink="http://www.w3.org/1999/xlink">
<g><path style="opacity:1" fill="#ebebeb" d="M -0.5,-0.5 C 194.833,-0.5 390.167,-0.5 585.5,-0.5C 585.5,54.8333 585.5,110.167 585.5,165.5C 390.167,165.5 194.833,165.5 -0.5,165.5C -0.5,110.167 -0.5,54.8333 -0.5,-0.5 Z"/></g>
<g><path style="opacity:1" fill="#151515" d="M 279.5,58.5 C 279.5,61.1667 279.5,63.8333 279.5,66.5C 274.833,66.5 270.167,66.5 265.5,66.5C 264.527,64.0521 264.194,61.3854 264.5,58.5C 269.5,58.5 274.5,58.5 279.5,58.5 Z"/></g>
<g><path style="opacity:1" fill="#111111" d="M 104.5,91.5 C 104.5,94.5 104.5,97.5 104.5,100.5C 99.8333,100.5 95.1667,100.5 90.5,100.5C 90.6641,97.8127 90.4974,95.146 90,92.5C 89.2496,91.8742 88.4162,91.3742 87.5,91C 77.5056,90.5002 67.5056,90.3335 57.5,90.5C 57.5,94.1667 57.5,97.8333 57.5,101.5C 52.8333,101.5 48.1667,101.5 43.5,101.5C 43.5,89.1667 43.5,76.8333 43.5,64.5C 61.8747,64.0824 80.2081,64.5824 98.5,66C 105.123,69.193 107.29,74.3596 105,81.5C 103.749,84.3807 101.583,86.214 98.5,87C 101.229,87.5661 103.229,89.0661 104.5,91.5 Z"/></g>
<g><path style="opacity:1" fill="#141414" d="M 413.5,74.5 C 413.5,75.5 413.5,76.5 413.5,77.5C 408.833,77.5 404.167,77.5 399.5,77.5C 398.373,76.8783 397.373,76.045 396.5,75C 389.5,74.3333 382.5,74.3333 375.5,75C 374.075,76.7141 374.408,78.0475 376.5,79C 386.537,79.2044 396.537,79.871 406.5,81C 415.913,83.5591 417.913,88.8924 412.5,97C 405.16,100.859 397.327,102.359 389,101.5C 380.381,102.309 372.214,100.809 364.5,97C 361.227,94.6806 359.56,91.514 359.5,87.5C 364.844,87.334 370.177,87.5006 375.5,88C 379.725,90.7229 384.392,91.8896 389.5,91.5C 393.906,91.9081 397.906,90.9081 401.5,88.5C 399.941,86.8693 397.941,86.036 395.5,86C 387.5,85.6667 379.5,85.3333 371.5,85C 361.834,84.4973 358.501,79.6639 361.5,70.5C 364.799,66.4528 369.132,64.2862 374.5,64C 385.782,62.5921 396.782,63.5921 407.5,67C 410.118,69.1057 412.118,71.6057 413.5,74.5 Z"/></g>
<g><path style="opacity:1" fill="#545454" d="M 422.5,64.5 C 422.5,76.5 422.5,88.5 422.5,100.5C 426.833,100.5 431.167,100.5 435.5,100.5C 435.19,97.2869 435.523,94.2869 436.5,91.5C 436.5,94.8333 436.5,98.1667 436.5,101.5C 431.5,101.5 426.5,101.5 421.5,101.5C 421.171,88.9887 421.505,76.6554 422.5,64.5 Z"/></g>
<g><path style="opacity:1" fill="#111111" d="M 422.5,64.5 C 438.17,64.3334 453.837,64.5001 469.5,65C 479.537,66.6968 483.704,72.5301 482,82.5C 480.022,88.3943 475.856,91.2276 469.5,91C 458.505,91.4998 447.505,91.6665 436.5,91.5C 435.523,94.2869 435.19,97.2869 435.5,100.5C 431.167,100.5 426.833,100.5 422.5,100.5C 422.5,88.5 422.5,76.5 422.5,64.5 Z"/></g>
<g><path style="opacity:1" fill="#141414" d="M 544.5,99.5 C 539.695,100.487 534.695,100.821 529.5,100.5C 528.386,99.1147 527.386,97.6147 526.5,96C 517.149,95.1679 507.816,95.3346 498.5,96.5C 497.376,97.914 496.376,99.414 495.5,101C 490.511,101.499 485.511,101.666 480.5,101.5C 487.593,88.8363 495.593,76.6697 504.5,65C 509.833,64.3333 515.167,64.3333 520.5,65C 528.879,76.2672 536.879,87.7672 544.5,99.5 Z"/></g>
<g><path style="opacity:1" fill="#969696" d="M 279.5,58.5 C 280.477,61.2869 280.81,64.2869 280.5,67.5C 275.305,67.8205 270.305,67.4872 265.5,66.5C 270.167,66.5 274.833,66.5 279.5,66.5C 279.5,63.8333 279.5,61.1667 279.5,58.5 Z"/></g>
<g><path style="opacity:1" fill="#535353" d="M 320.5,73.5 C 325.985,72.3483 331.651,72.1816 337.5,73C 336.956,73.7172 336.289,74.2172 335.5,74.5C 330.695,73.5128 325.695,73.1795 320.5,73.5 Z"/></g>
<g><path style="opacity:1" fill="#131313" d="M 164.5,87.5 C 151.483,87.1675 138.483,87.5009 125.5,88.5C 125.624,89.1067 125.957,89.44 126.5,89.5C 127.736,91.8275 129.736,92.9942 132.5,93C 138.71,94.0207 144.71,93.5207 150.5,91.5C 155.294,90.9031 159.627,91.5698 163.5,93.5C 160.678,97.7511 156.678,100.251 151.5,101C 141.788,101.824 132.121,101.491 122.5,100C 113.169,97.1724 109.669,91.0058 112,81.5C 115.507,76.4936 120.34,73.6602 126.5,73C 135.167,72.3333 143.833,72.3333 152.5,73C 160.336,74.669 164.336,79.5023 164.5,87.5 Z"/></g>
<g><path style="opacity:1" fill="#121212" d="M 258.5,83.5 C 258.5,89.1667 258.5,94.8333 258.5,100.5C 254.167,100.5 249.833,100.5 245.5,100.5C 245.666,95.1563 245.499,89.8229 245,84.5C 237.425,80.5967 229.758,80.5967 222,84.5C 221.501,89.8229 221.334,95.1563 221.5,100.5C 216.833,100.5 212.167,100.5 207.5,100.5C 207.666,95.1563 207.499,89.8229 207,84.5C 204.347,82.0593 201.18,81.0593 197.5,81.5C 192.599,81.5597 187.932,82.5597 183.5,84.5C 182.512,89.6405 182.179,94.9738 182.5,100.5C 178.167,100.5 173.833,100.5 169.5,100.5C 169.5,91.5 169.5,82.5 169.5,73.5C 173.833,73.5 178.167,73.5 182.5,73.5C 182.198,76.0593 182.532,78.3926 183.5,80.5C 192.892,72.0508 203.559,70.2175 215.5,75C 217.333,76.8333 219.167,78.6667 221,80.5C 230.697,72.1616 241.53,70.3283 253.5,75C 256.091,77.3575 257.758,80.1908 258.5,83.5 Z"/></g>
<g><path style="opacity:1" fill="#666666" d="M 169.5,73.5 C 173.97,72.5139 178.637,72.1805 183.5,72.5C 183.5,75.1667 183.5,77.8333 183.5,80.5C 182.532,78.3926 182.198,76.0593 182.5,73.5C 178.167,73.5 173.833,73.5 169.5,73.5 Z"/></g>
<g><path style="opacity:1" fill="#111111" d="M 265.5,73.5 C 269.833,73.5 274.167,73.5 278.5,73.5C 278.5,82.5 278.5,91.5 278.5,100.5C 274.167,100.5 269.833,100.5 265.5,100.5C 265.5,91.5 265.5,82.5 265.5,73.5 Z"/></g>
<g><path style="opacity:1" fill="#535353" d="M 265.5,73.5 C 269.97,72.5139 274.637,72.1805 279.5,72.5C 279.5,82.1667 279.5,91.8333 279.5,101.5C 274.637,101.819 269.97,101.486 265.5,100.5C 269.833,100.5 274.167,100.5 278.5,100.5C 278.5,91.5 278.5,82.5 278.5,73.5C 274.167,73.5 269.833,73.5 265.5,73.5 Z"/></g>
<g><path style="opacity:1" fill="#171717" d="M 320.5,73.5 C 325.695,73.1795 330.695,73.5128 335.5,74.5C 329.878,78.1223 324.545,82.1223 319.5,86.5C 325.055,91.096 330.722,95.4294 336.5,99.5C 331.695,100.487 326.695,100.821 321.5,100.5C 318.095,97.7622 314.428,95.4288 310.5,93.5C 307.028,95.7443 303.695,98.2443 300.5,101C 294.833,101.667 289.167,101.667 283.5,101C 289.5,96.3333 295.5,91.6667 301.5,87C 295.5,82.3333 289.5,77.6667 283.5,73C 294.121,70.2903 303.121,72.7903 310.5,80.5C 313.851,78.1414 317.185,75.8081 320.5,73.5 Z"/></g>
<g><path style="opacity:1" fill="#cdcdcd" d="M 57.5,75.5 C 68.505,75.3335 79.505,75.5002 90.5,76C 91.9909,78.0217 91.6576,79.6883 89.5,81C 78.8385,81.4998 68.1719,81.6665 57.5,81.5C 57.5,79.5 57.5,77.5 57.5,75.5 Z"/></g>
<g><path style="opacity:1" fill="#d9d9d9" d="M 436.5,75.5 C 446.506,75.3335 456.506,75.5002 466.5,76C 467.406,77.6995 467.739,79.5328 467.5,81.5C 457.167,81.5 446.833,81.5 436.5,81.5C 436.5,79.5 436.5,77.5 436.5,75.5 Z"/></g>
<g><path style="opacity:1" fill="#dfdfdf" d="M 519.5,85.5 C 515.03,86.4861 510.363,86.8195 505.5,86.5C 507.063,82.3823 509.396,78.7156 512.5,75.5C 514.831,78.825 517.164,82.1583 519.5,85.5 Z"/></g>
<g><path style="opacity:1" fill="#848484" d="M 413.5,74.5 C 414.434,75.5676 414.768,76.901 414.5,78.5C 409.305,78.8205 404.305,78.4872 399.5,77.5C 404.167,77.5 408.833,77.5 413.5,77.5C 413.5,76.5 413.5,75.5 413.5,74.5 Z"/></g>
<g><path style="opacity:1" fill="#dddddd" d="M 149.5,82.5 C 142.5,83.8333 135.5,83.8333 128.5,82.5C 131.532,80.9202 134.865,80.2535 138.5,80.5C 142.393,80.2981 146.06,80.9647 149.5,82.5 Z"/></g>
<g><path style="opacity:1" fill="#9f9f9f" d="M 128.5,82.5 C 135.5,83.8333 142.5,83.8333 149.5,82.5C 150.043,82.56 150.376,82.8933 150.5,83.5C 142.5,84.8333 134.5,84.8333 126.5,83.5C 126.957,82.7025 127.624,82.3691 128.5,82.5 Z"/></g>
<g><path style="opacity:1" fill="#707070" d="M 183.5,84.5 C 183.5,90.1667 183.5,95.8333 183.5,101.5C 178.637,101.819 173.97,101.486 169.5,100.5C 173.833,100.5 178.167,100.5 182.5,100.5C 182.179,94.9738 182.512,89.6405 183.5,84.5 Z"/></g>
<g><path style="opacity:1" fill="#454545" d="M 519.5,85.5 C 520.043,85.56 520.376,85.8933 520.5,86.5C 515.348,87.8137 510.348,87.8137 505.5,86.5C 510.363,86.8195 515.03,86.4861 519.5,85.5 Z"/></g>
<g><path style="opacity:1" fill="#6b6b6b" d="M 164.5,87.5 C 151.833,88.1667 139.167,88.8333 126.5,89.5C 125.957,89.44 125.624,89.1067 125.5,88.5C 138.483,87.5009 151.483,87.1675 164.5,87.5 Z"/></g>
<g><path style="opacity:1" fill="#4e4e4e" d="M 258.5,83.5 C 259.49,89.31 259.823,95.31 259.5,101.5C 254.637,101.819 249.97,101.486 245.5,100.5C 249.833,100.5 254.167,100.5 258.5,100.5C 258.5,94.8333 258.5,89.1667 258.5,83.5 Z"/></g>
<g><path style="opacity:1" fill="#484848" d="M 150.5,91.5 C 154.97,90.5139 159.637,90.1805 164.5,90.5C 164.737,91.791 164.404,92.791 163.5,93.5C 159.627,91.5698 155.294,90.9031 150.5,91.5 Z"/></g>
<g><path style="opacity:1" fill="#808080" d="M 104.5,91.5 C 105.479,94.6248 105.813,97.9581 105.5,101.5C 100.305,101.821 95.3054,101.487 90.5,100.5C 95.1667,100.5 99.8333,100.5 104.5,100.5C 104.5,97.5 104.5,94.5 104.5,91.5 Z"/></g>
<g><path style="opacity:1" fill="#717171" d="M 336.5,99.5 C 337.289,99.7828 337.956,100.283 338.5,101C 332.651,101.818 326.985,101.652 321.5,100.5C 326.695,100.821 331.695,100.487 336.5,99.5 Z"/></g>
<g><path style="opacity:1" fill="#777777" d="M 544.5,99.5 C 545.043,99.56 545.376,99.8933 545.5,100.5C 540.014,101.815 534.68,101.815 529.5,100.5C 534.695,100.821 539.695,100.487 544.5,99.5 Z"/></g>
</svg>
